<svg width="40" height="40" viewBox="0 0 40 40" fill="none" xmlns="http://www.w3.org/2000/svg">
<path opacity="0.3" d="M30.5169 10H15.2002L23.5169 18.3333H25.9169L30.5169 10Z" fill="url(#paint0_linear_1115_14793)"/>
<path d="M2.35 1.8833L0 4.2333L7.31667 11.55L11 19.3166L8.75 23.4C8.48333 23.8666 8.33333 24.4166 8.33333 25C8.33333 26.8333 9.83333 28.3333 11.6667 28.3333H24.1L26.4 30.6333C25.5667 31.2333 25.0167 32.2166 25.0167 33.3333C25.0167 35.1666 26.5 36.6666 28.3333 36.6666C29.45 36.6666 30.4333 36.1166 31.0333 35.2666L35.7667 40L38.1167 37.65L2.35 1.8833ZM11.6667 25L13.5 21.6666H17.4333L20.7667 25H11.6667Z" fill="url(#paint1_linear_1115_14793)"/>
<path d="M33.3334 6.66663H11.8668L15.2001 9.99996H30.5168L25.9168 18.3333H23.5168L26.7501 21.5666C27.6501 21.3333 28.4001 20.75 28.8334 19.95L34.8001 9.13329C35.4168 8.03329 34.6001 6.66663 33.3334 6.66663ZM11.6668 30C9.83343 30 8.3501 31.5 8.3501 33.3333C8.3501 35.1666 9.83343 36.6666 11.6668 36.6666C13.5001 36.6666 15.0001 35.1666 15.0001 33.3333C15.0001 31.5 13.5001 30 11.6668 30Z" fill="url(#paint2_linear_1115_14793)"/>
<defs>
<linearGradient id="paint0_linear_1115_14793" x1="3.33496" y1="3.18182" x2="33.9221" y2="40.9308" gradientUnits="userSpaceOnUse">
<stop stop-color="#0F62FF"/>
<stop offset="1" stop-color="#00A9FF"/>
</linearGradient>
<linearGradient id="paint1_linear_1115_14793" x1="-7.01877e-07" y1="1.66683" x2="40" y2="40.0002" gradientUnits="userSpaceOnUse">
<stop stop-color="#0F62FF"/>
<stop offset="1" stop-color="#00A9FF"/>
</linearGradient>
<linearGradient id="paint2_linear_1115_14793" x1="8.3501" y1="6.49625" x2="39.4589" y2="32.9898" gradientUnits="userSpaceOnUse">
<stop stop-color="#0F62FF"/>
<stop offset="1" stop-color="#00A9FF"/>
</linearGradient>
</defs>
</svg>
