<svg width="40" height="40" viewBox="0 0 40 40" fill="none" xmlns="http://www.w3.org/2000/svg">
<path opacity="0.3" d="M6.66699 6.66687V18.6169L21.3837 33.3335L33.3337 21.3835L18.617 6.66687H6.66699ZM10.8337 13.3335C9.45033 13.3335 8.33366 12.2169 8.33366 10.8335C8.33366 9.4502 9.45033 8.33354 10.8337 8.33354C12.217 8.33354 13.3337 9.4502 13.3337 10.8335C13.3337 12.2169 12.217 13.3335 10.8337 13.3335Z" fill="url(#paint0_linear_1115_14782)"/>
<path d="M35.6835 19.0168L20.9668 4.30016C20.3502 3.6835 19.5002 3.3335 18.6168 3.3335H6.66683C4.8335 3.3335 3.3335 4.8335 3.3335 6.66683V18.6168C3.3335 19.5002 3.6835 20.3502 4.31683 20.9668L19.0335 35.6835C20.3335 36.9835 22.4502 36.9835 23.7502 35.6835L35.7002 23.7335C37.0002 22.4335 37.0002 20.3335 35.6835 19.0168ZM21.3835 33.3335L6.66683 18.6168V6.66683H18.6168L33.3335 21.3835L21.3835 33.3335Z" fill="url(#paint1_linear_1115_14782)"/>
<path d="M10.8335 13.3335C12.2142 13.3335 13.3335 12.2142 13.3335 10.8335C13.3335 9.45278 12.2142 8.3335 10.8335 8.3335C9.45278 8.3335 8.3335 9.45278 8.3335 10.8335C8.3335 12.2142 9.45278 13.3335 10.8335 13.3335Z" fill="url(#paint2_linear_1115_14782)"/>
<defs>
<linearGradient id="paint0_linear_1115_14782" x1="-13.9907" y1="-15.1513" x2="78.6186" y2="47.0322" gradientUnits="userSpaceOnUse">
<stop stop-color="#0F62FF"/>
<stop offset="1" stop-color="#00A9FF"/>
</linearGradient>
<linearGradient id="paint1_linear_1115_14782" x1="3.3335" y1="3.14424" x2="38.3057" y2="36.674" gradientUnits="userSpaceOnUse">
<stop stop-color="#0F62FF"/>
<stop offset="1" stop-color="#00A9FF"/>
</linearGradient>
<linearGradient id="paint2_linear_1115_14782" x1="8.3335" y1="8.3051" x2="13.5805" y2="13.3335" gradientUnits="userSpaceOnUse">
<stop stop-color="#0F62FF"/>
<stop offset="1" stop-color="#00A9FF"/>
</linearGradient>
</defs>
</svg>
